<?xml version="1.0" encoding="iso-8859-1"?>
<!-- Generator: Adobe Illustrator 19.0.0, SVG Export Plug-In . SVG Version: 6.00 Build 0)  -->
<svg version="1.1" id="Capa_1" xmlns="http://www.w3.org/2000/svg" xmlns:xlink="http://www.w3.org/1999/xlink" x="0px" y="0px"
	 viewBox="0 0 416 416" style="enable-background:new 0 0 416 416;" xml:space="preserve">
<g>
	<g>
		<path d="M383.36,0H92.72C55.139,0.044,24.684,30.499,24.64,68.08v280c0.132,37.519,30.561,67.876,68.08,67.92h290.64
			c4.418,0,8-3.582,8-8V8C391.36,3.582,387.778,0,383.36,0z M40.64,67.92c0.044-25.653,18.736-47.466,44.08-51.44v264
			c-17.219,2.079-32.99,10.665-44.08,24V67.92z M375.36,318.88H123.84c-4.418,0-8,3.582-8,8s3.582,8,8,8h251.52v17.6H123.84
			c-4.418,0-8,3.582-8,8s3.582,8,8,8h251.52v32H92.72c-28.719,1.594-53.292-20.396-54.886-49.114s20.396-53.292,49.114-54.886
			c1.922-0.107,3.849-0.107,5.771,0h282.64V318.88z M247.2,176c-2.828-2.094-6.692-2.094-9.52,0
			c-28.726,22.938-70.607,18.245-93.545-10.48c-2.573-3.223-4.841-6.677-6.775-10.32l25.52,8.48c19.28,6.4,41.36-7.52,49.28-31.12
			c3.627-10.633,3.627-22.167,0-32.8c-3.192-10.119-10.955-18.149-20.96-21.68l-31.2-10c30.978-19.872,72.201-10.869,92.073,20.109
			c7.416,11.56,11.078,25.129,10.487,38.851c-0.114,2.774,1.219,5.408,3.52,6.96l109.12,74.48l0.16,55.04L247.2,176z M375.36,189.12
			L278.8,123.2c-0.564-45.637-38.018-82.177-83.655-81.613c-21.353,0.264-41.775,8.783-56.985,23.773
			c-3.139,3.109-3.163,8.174-0.054,11.314c0.888,0.897,1.976,1.57,3.174,1.966l45.2,15.04c5.272,2.039,9.293,6.415,10.88,11.84
			c2.469,7.263,2.469,15.137,0,22.4c-5.36,15.04-18.64,24.64-29.36,21.04l-41.6-13.84c-4.182-1.426-8.728,0.809-10.153,4.991
			c-0.507,1.487-0.565,3.09-0.167,4.609c11.085,44.229,55.926,71.097,100.154,60.012c9.526-2.387,18.549-6.455,26.646-12.012
			L371.12,280h-270.4V16h274.64V189.12z"/>
	</g>
</g>
<g>
</g>
<g>
</g>
<g>
</g>
<g>
</g>
<g>
</g>
<g>
</g>
<g>
</g>
<g>
</g>
<g>
</g>
<g>
</g>
<g>
</g>
<g>
</g>
<g>
</g>
<g>
</g>
<g>
</g>
</svg>
