<?xml version="1.0" encoding="iso-8859-1"?>
<!-- Generator: Adobe Illustrator 19.0.0, SVG Export Plug-In . SVG Version: 6.00 Build 0)  -->
<svg version="1.1" id="Capa_1" xmlns="http://www.w3.org/2000/svg" xmlns:xlink="http://www.w3.org/1999/xlink" x="0px" y="0px"
	 viewBox="0 0 336.08 336.08" style="enable-background:new 0 0 336.08 336.08;" xml:space="preserve">
<g>
	<g>
		<path d="M336,182.68V115.4c1.268-19.443-13.465-36.233-32.909-37.502c-1.429-0.093-2.862-0.099-4.291-0.018h-96v-30.8
			c0-19.36-10.48-40-40-40H40c-25.04,0-40,14.96-40,40V289c0,19.36,10.56,40,40,40h123.2c29.52,0,40-20.72,40-40v-41.6l6.64,8
			c2.819,3.402,7.862,3.876,11.264,1.057c1.86-1.541,2.925-3.841,2.896-6.257v-29.92h74.96
			c19.458,1.016,36.056-13.934,37.072-33.392C336.105,185.485,336.094,184.08,336,182.68z M16,47.08c0-5.92,0-24,24-24h123.2
			c11.693-1.562,22.438,6.651,24,18.344c0.251,1.877,0.251,3.779,0,5.656v8.96H16V47.08z M16,72.04h171.04v6.16h-18.4
			c-19.44-1.323-36.271,13.362-37.595,32.802c-0.107,1.571-0.109,3.147-0.005,4.718V183c-1.282,19.442,13.44,36.243,32.882,37.525
			c1.571,0.104,3.147,0.102,4.718-0.005h11.68l6.8,8l-0.08,29.84H16V72.04z M168.696,313c-1.877,0.251-3.779,0.251-5.656,0H40
			c-11.693,1.562-22.438-6.651-24-18.344c-0.251-1.877-0.251-3.779,0-5.656v-14.64h171.04V289
			C188.602,300.693,180.389,311.438,168.696,313z M303.084,204.209c-1.556,0.187-3.129,0.184-4.684-0.009H216c-4.418,0-8,3.582-8,8
			v16l-17.68-21.12c-1.523-1.828-3.781-2.884-6.16-2.88h-15.6c-10.611,1.313-20.278-6.224-21.591-16.836
			c-0.193-1.555-0.195-3.128-0.009-4.684V115.4c-1.274-10.616,6.299-20.255,16.915-21.529c1.556-0.187,3.129-0.184,4.685,0.009
			H298.8c10.637-1.089,20.142,6.65,21.232,17.287c0.144,1.408,0.134,2.828-0.032,4.233v67.28
			C321.274,193.296,313.701,202.935,303.084,204.209z"/>
	</g>
</g>
<g>
	<g>
		<path d="M121.84,284.52H80.88c-4.418,0-8,3.582-8,8s3.582,8,8,8h40.96c4.418,0,8-3.582,8-8S126.258,284.52,121.84,284.52z"/>
	</g>
</g>
<g>
</g>
<g>
</g>
<g>
</g>
<g>
</g>
<g>
</g>
<g>
</g>
<g>
</g>
<g>
</g>
<g>
</g>
<g>
</g>
<g>
</g>
<g>
</g>
<g>
</g>
<g>
</g>
<g>
</g>
</svg>
