<?xml version="1.0" encoding="iso-8859-1"?>
<!-- Generator: Adobe Illustrator 19.0.0, SVG Export Plug-In . SVG Version: 6.00 Build 0)  -->
<svg version="1.1" id="Capa_1" xmlns="http://www.w3.org/2000/svg" xmlns:xlink="http://www.w3.org/1999/xlink" x="0px" y="0px"
	 viewBox="0 0 489.377 489.377" style="enable-background:new 0 0 489.377 489.377;" xml:space="preserve">
<g>
	<g>
		<path d="M361.289,297.364v-40c1.011-13.216-8.884-24.749-22.1-25.76c-1.218-0.093-2.442-0.093-3.66,0h-46.64c0-0.56,0-1.12,0-1.68
			v-45.68c0.96-14.46-9.985-26.96-24.445-27.92c-1.157-0.077-2.318-0.077-3.475,0h-88c-14.46-0.96-26.96,9.985-27.92,24.445
			c-0.077,1.157-0.077,2.318,0,3.475v45.44c-0.989,13.03,8.024,24.702,20.88,27.04v17.28c0.001,3.368,2.112,6.375,5.28,7.52
			c0.872,0.316,1.792,0.479,2.72,0.48c2.379,0.004,4.637-1.052,6.16-2.88l18.08-21.6h33.6v40
			c-0.918,13.223,9.056,24.687,22.279,25.605c1.132,0.079,2.269,0.077,3.401-0.005h5.52l16.64,19.92
			c2.819,3.402,7.862,3.875,11.264,1.056c1.838-1.523,2.9-3.788,2.896-6.176v-14.8h41.76c13.216,1.011,24.749-8.884,25.76-22.1
			C361.383,299.806,361.383,298.582,361.289,297.364z M236.089,241.684h-41.68c-2.264,0.151-4.358,1.256-5.76,3.04l-6.32,7.6v-2.4
			c-0.338-4.551-4.157-8.055-8.72-8c-5.776,0.807-11.113-3.221-11.92-8.997c-0.135-0.97-0.135-1.954,0-2.923l-0.48-45.76
			c-0.807-5.776,3.221-11.113,8.997-11.92c0.97-0.135,1.954-0.135,2.923,0h88c5.776-0.807,11.113,3.221,11.92,8.997
			c0.135,0.97,0.135,1.954,0,2.923v45.44c0.032,0.56,0.032,1.12,0,1.68h-15.6C249.066,231.085,241.081,234.943,236.089,241.684z
			 M345.289,297.044c0,9.76-7.04,9.76-9.76,9.76h-49.84c-4.418,0-8,3.582-8,8v0.72l-4.96-5.92c-1.523-1.828-3.781-2.884-6.16-2.88
			h-9.12c-9.76,0-9.76-7.04-9.76-9.76v-40c-0.045-1.461,0.144-2.919,0.56-4.32c0.88-2.72,3.2-5.36,9.2-5.36h21.52h56.56
			c9.76,0,9.76,7.04,9.76,9.76V297.044z"/>
	</g>
</g>
<g>
	<g>
		<path d="M489.209,388.084v-19.28c0-9.588-7.772-17.36-17.36-17.36c-0.027,0-0.053,0-0.08,0h-20.64c0-0.48,0-0.88,0-1.36v-248.8
			c1.771-16.962-10.544-32.149-27.506-33.92c-2.132-0.223-4.282-0.223-6.414,0h-345.2c-16.962-1.771-32.149,10.544-33.92,27.506
			c-0.223,2.132-0.223,4.282,0,6.414v248.8c0,0.48,0,0.88,0,1.36h-20.56c-9.588,0-17.36,7.772-17.36,17.36v19.28
			c-1.771,16.962,10.544,32.149,27.506,33.92c2.132,0.223,4.282,0.223,6.414,0h421.12c16.958,1.816,32.177-10.459,33.992-27.417
			C489.433,392.426,489.436,390.246,489.209,388.084z M54.009,101.284c0-12.56,5.36-17.92,17.92-17.92h345.44
			c12.56,0,17.92,5.36,17.92,17.92v22.24H54.009V101.284z M54.009,139.524h381.28v210.56c0,0.751-0.609,1.36-1.36,1.36H55.369
			c-0.751,0-1.36-0.609-1.36-1.36V139.524z M455.129,406.084H34.089c-12.56,0-17.92-5.36-17.92-17.92v-19.36
			c0-0.751,0.609-1.36,1.36-1.36h454.24c0.751,0,1.36,0.609,1.36,1.36l0,19.36C473.129,400.724,467.77,406.084,455.129,406.084z"/>
	</g>
</g>
<g>
	<g>
		<circle cx="244.649" cy="103.844" r="10.88"/>
	</g>
</g>
<g>
</g>
<g>
</g>
<g>
</g>
<g>
</g>
<g>
</g>
<g>
</g>
<g>
</g>
<g>
</g>
<g>
</g>
<g>
</g>
<g>
</g>
<g>
</g>
<g>
</g>
<g>
</g>
<g>
</g>
</svg>
