<?xml version="1.0" encoding="iso-8859-1"?>
<!-- Generator: Adobe Illustrator 19.0.0, SVG Export Plug-In . SVG Version: 6.00 Build 0)  -->
<svg version="1.1" id="Capa_1" xmlns="http://www.w3.org/2000/svg" xmlns:xlink="http://www.w3.org/1999/xlink" x="0px" y="0px"
	 viewBox="0 0 464.051 464.051" style="enable-background:new 0 0 464.051 464.051;" xml:space="preserve">
<g>
	<g>
		<path d="M437.773,202.73h-0.32v-39.36c0-87.2-92.16-158.16-205.44-158.16S26.573,76.17,26.573,163.37v39.36
			c-8.439,1.073-16.071,5.554-21.12,12.4c-3.62,5.269-5.52,11.528-5.44,17.92v86.4c-0.182,6.322,1.577,12.548,5.04,17.84
			c6.16,8.88,16.88,13.36,32,13.36h17.04h2.16c0.684,9.39,8.759,16.504,18.16,16h18.64c9.401,0.504,17.476-6.61,18.16-16v-150
			c-0.684-9.39-8.759-16.504-18.16-16h-18.64c-9.401-0.504-17.476,6.61-18.16,16v1.36h-2.16h-11.52v-38.64
			c0-78.4,84.96-142.16,189.44-142.16s189.44,64,189.44,142.24v38.4h-11.52h-2.16v-1.36c-0.684-9.39-8.759-16.504-18.16-16h-18.72
			c-9.401-0.504-17.476,6.61-18.16,16v149.92c0.684,9.39,8.759,16.504,18.16,16h0.72c-1.809,9.002-6.105,17.316-12.4,24
			c-16.56,18.24-48,28.72-90.08,30.8v-4.32c-1.132-10.191-10.282-17.555-20.48-16.48h-45.84c-10.197-1.075-19.348,6.289-20.48,16.48
			v25.36c1.088,10.193,10.232,17.574,20.424,16.486c0.019-0.002,0.037-0.004,0.056-0.006h45.76
			c10.189,1.118,19.356-6.235,20.474-16.424c0.002-0.018,0.004-0.037,0.006-0.056v-5.12c48-2.24,82.56-14.4,102.4-36.56
			c8.664-9.633,14.238-21.644,16-34.48h1.76c9.401,0.504,17.476-6.61,18.16-16h2.16h16.72c15.04,0,25.84-4.48,32-13.36
			c3.609-5.052,5.616-11.073,5.76-17.28v-86.4C464.809,217.543,453.233,204.167,437.773,202.73z M72.413,217.93c0-0.4,0-0.8,0-1.2
			v-15.44c0.505-0.607,1.218-1.006,2-1.12h18.64c1.36,0,2.16,0.56,2.16,0v149.04c-0.636,0.564-1.471,0.852-2.32,0.8h-18.48
			c-0.665,0.063-1.335,0.063-2,0V217.93z M54.093,217.77v0.08c1.36,0,2.16,0.48,2.16,0v116c-0.619,0.468-1.386,0.696-2.16,0.64
			h-16.72c-6.897,0.813-13.795-1.506-18.8-6.32c-1.718-2.58-2.611-5.621-2.56-8.72v-86.4c-0.084-3.153,0.811-6.255,2.56-8.88
			c4.133-4.383,9.985-6.724,16-6.4H54.093z M253.053,441.85c-1.342,0.834-2.901,1.251-4.48,1.2h-45.76
			c-1.579,0.051-3.138-0.366-4.48-1.2v-24c1.342-0.834,2.901-1.251,4.48-1.2h45.76c1.579-0.051,3.138,0.366,4.48,1.2V441.85z
			 M391.773,334.49c0,0.4,0,0.8,0,1.2v14.08c-0.596,0.526-1.366,0.811-2.16,0.8h-18.72c-0.665,0.063-1.335,0.063-2,0V201.53
			c0.649-0.536,1.482-0.794,2.32-0.72h18.4c1.36,0,2.16,0.56,2.16,0V334.49z M448.013,233.05v86.4c0.051,3.099-0.842,6.14-2.56,8.72
			c-4.976,4.872-11.878,7.251-18.8,6.48h-16.72c-0.665,0.06-1.335,0.06-2,0V218.49c0.615-0.475,1.385-0.703,2.16-0.64h19.6
			c6.015-0.323,11.867,2.017,16,6.4C447.342,226.879,448.151,229.949,448.013,233.05z"/>
	</g>
</g>
<g>
	<g>
		<path d="M320.413,189.45v-0.48c-38.487-48.424-108.942-56.48-157.367-17.993c-6.662,5.295-12.699,11.332-17.993,17.993v0.48
			c-32.388,40.434-32.818,97.805-1.04,138.72c-0.009,0.16-0.009,0.32,0,0.48c38.175,48.671,108.577,57.179,157.248,19.004
			c6.967-5.465,13.262-11.737,18.752-18.684h0.4c0,0,0,0,0-0.56C352.621,287.688,352.621,230.171,320.413,189.45z M184.013,174.89
			c-4.793,6.915-8.792,14.349-11.92,22.16c-3.315-1.445-6.547-3.074-9.68-4.88C168.75,185.407,176.024,179.588,184.013,174.89z
			 M152.013,312.89c-22.388-32.695-22.388-75.785,0-108.48c4.757,3.029,9.73,5.703,14.88,8c-8.209,30.389-8.209,62.411,0,92.8
			C161.752,307.403,156.779,309.97,152.013,312.89z M162.413,325.29h-0.24c3.291-1.891,6.682-3.6,10.16-5.12
			c3.052,7.8,6.97,15.233,11.68,22.16C176.04,337.704,168.767,331.967,162.413,325.29z M224.013,353.93
			c-14.8-4-27.92-18.72-36.48-39.44c11.867-3.504,24.118-5.546,36.48-6.08V353.93z M224.013,292.41
			c-14.104,0.563-28.081,2.902-41.6,6.96c-7.2-26.669-7.2-54.771,0-81.44c13.517,4.066,27.495,6.404,41.6,6.96V292.41z
			 M224.013,208.89c-12.362-0.534-24.613-2.576-36.48-6.08c8.56-20.72,21.68-35.52,36.48-39.44V208.89z M301.613,192.17
			c-3.179,1.893-6.465,3.603-9.84,5.12c-3.061-7.887-7.007-15.401-11.76-22.4C288.002,179.588,295.276,185.407,301.613,192.17z
			 M240.013,163.29c14.8,4,27.92,18.72,36.48,39.44c-11.867,3.504-24.118,5.546-36.48,6.08V163.29z M240.013,224.81
			c14.105-0.556,28.083-2.894,41.6-6.96c7.199,26.669,7.199,54.771,0,81.44c-13.519-4.058-27.496-6.397-41.6-6.96V224.81z
			 M240.013,353.85v-45.52c12.362,0.534,24.613,2.576,36.48,6.08C267.933,335.13,254.813,349.93,240.013,353.85z M280.013,342.33
			c4.71-6.927,8.628-14.36,11.68-22.16c3.375,1.518,6.66,3.228,9.84,5.12C295.202,331.959,287.956,337.696,280.013,342.33z
			 M312.013,312.81c-4.756-3.029-9.73-5.703-14.88-8c8.209-30.389,8.209-62.411,0-92.8c5.141-2.194,10.114-4.761,14.88-7.68
			C334.401,237.024,334.401,280.115,312.013,312.81z"/>
	</g>
</g>
<g>
</g>
<g>
</g>
<g>
</g>
<g>
</g>
<g>
</g>
<g>
</g>
<g>
</g>
<g>
</g>
<g>
</g>
<g>
</g>
<g>
</g>
<g>
</g>
<g>
</g>
<g>
</g>
<g>
</g>
</svg>
