<?xml version="1.0" encoding="iso-8859-1"?>
<!-- Generator: Adobe Illustrator 19.0.0, SVG Export Plug-In . SVG Version: 6.00 Build 0)  -->
<svg version="1.1" id="Capa_1" xmlns="http://www.w3.org/2000/svg" xmlns:xlink="http://www.w3.org/1999/xlink" x="0px" y="0px"
	 viewBox="0 0 422.694 422.694" style="enable-background:new 0 0 422.694 422.694;" xml:space="preserve">
<g>
	<g>
		<path d="M333.069,311.067c3.384-27.872,5.067-55.924,5.04-84c6.79-3.763,12.664-8.981,17.2-15.28
			c12.88-18.16,13.92-44.08,3.2-77.12c-0.568-1.707-1.696-3.173-3.2-4.16l-5.36-3.6c0.861-29.88-9.402-59.016-28.8-81.76
			c-24-26.56-60.72-40-109.44-40s-85.52,13.76-109.44,40c-19.398,22.744-29.661,51.88-28.8,81.76l-5.36,3.6
			c-1.504,0.987-2.632,2.453-3.2,4.16c-18.56,57.2,2.16,81.84,19.84,92.24c-0.496,28.206,1.028,56.412,4.56,84.4
			c-43.52,17.04-90.64,47.36-89.28,98.24c0,4.418,3.582,8,8,8h406.64c4.418,0,8-3.582,8-8
			C423.949,358.427,376.349,328.027,333.069,311.067z M85.007,207.001c-15.928-16.007-12.889-42.764-6.018-65.054l6.8-4.56
			c2.457-1.64,3.81-4.5,3.52-7.44c-1.516-27.051,7.29-53.67,24.64-74.48c20.72-22.72,53.52-34.48,97.36-34.64
			c43.84-0.16,76.64,11.92,97.44,34.88c17.35,20.81,26.156,47.429,24.64,74.48c-0.29,2.94,1.063,5.8,3.52,7.44l6.88,4.56
			c8,26.64,7.6,46.88-1.84,60.24c-1.303,1.817-2.776,3.504-4.4,5.04c-2.8-60.72-17.04-106.24-42.8-135.6
			c-11.494-13.195-26.015-23.407-42.32-29.76h-0.72c-14.677-5.557-30.227-8.456-45.92-8.56c-29.292-1.201-57.554,10.916-76.88,32.96
			C98.411,100.997,87.754,157.157,85.007,207.001z M271.549,280.747l0.08-0.32c5.285-6.488,9.647-13.676,12.96-21.36
			c2.001-4.712,3.606-9.582,4.8-14.56l21.2-8.96c3.919-0.363,7.799-1.058,11.6-2.08c-0.3,24.064-1.848,48.096-4.64,72
			c-14.978-5.004-30.263-9.039-45.76-12.08v-11.36C271.746,281.594,271.666,281.166,271.549,280.747z M236.989,257.867
			c0,4.948-4.011,8.96-8.96,8.96c-4.948,0-8.96-4.012-8.96-8.96s4.012-8.96,8.96-8.96c0,0,0,0,0,0
			c4.948,0.085,8.89,4.165,8.804,9.113c-0.001,0.056-0.002,0.111-0.004,0.167L236.989,257.867z M227.949,233.227l0.08-0.32
			c-13.785-0.092-25.034,11.009-25.125,24.793s11.009,25.034,24.793,25.125c13.104,0.087,24.044-9.974,25.052-23.039l17.2-7.28
			c-14.08,33.04-48.48,45.68-58.48,48.72c-43.84-24-66.56-48-65.68-71.36c1.44-37.28,61.12-64,67.92-67.2
			c14.153-5.654,26.685-14.724,36.48-26.4c20.56,37.52,28.8,69.84,24.88,96.64l-26.4,11.12
			C243.978,237.217,236.218,233.172,227.949,233.227z M100.669,219.947l0.32-0.24c1.52-50.08,10.4-109.12,40-143.04
			c16.151-18.65,40.003-28.804,64.64-27.52c11.804,0.092,23.531,1.925,34.8,5.44c-0.347,7.498,0.628,14.999,2.88,22.16
			c3.44,13.28,6.96,26.96,0,40c0,0,0,0,0,0.56c-0.148,0.259-0.282,0.526-0.4,0.8c0,0.72-6.08,17.2-35.44,29.92
			c-12.64,5.44-75.76,35.12-77.52,81.2c-0.64,16.64,6.8,32.88,22.08,48.72c-0.639,1.125-0.996,2.387-1.04,3.68v11.28
			c-15.773,3.084-31.326,7.2-46.56,12.32c-3.055-26.713-4.338-53.598-3.84-80.48C101.106,223.193,101.134,221.517,100.669,219.947z
			 M308.749,219.387c-0.991,0.033-1.968,0.25-2.88,0.64l-13.6,5.76c1.28-30.08-9.6-65.44-32.96-105.36c5.49-15.529,5.49-32.471,0-48
			c-1.04-3.84-2-8-2.56-11.12c9.935,5.286,18.826,12.334,26.24,20.8c24.56,28.08,37.76,73.12,39.28,134.4
			C317.912,218.071,313.364,219.04,308.749,219.387z M203.309,401.307H16.269c6.32-60.08,104-85.2,134.56-91.68v14
			c0,18.16,22.08,32,52.48,34.32V401.307z M166.829,323.707L166.829,323.707v-32c12.544,9.639,25.931,18.126,40,25.36
			c1.156,0.624,2.447,0.953,3.76,0.96h1.76c15.828-4.239,30.632-11.641,43.52-21.76v27.6c0,7.6-17.36,18.56-44.48,18.56
			C184.269,342.427,166.829,331.067,166.829,323.707z M219.309,401.307v-43.28c30.4-2.08,52.48-16,52.48-34.32v-14
			c30.8,6.4,128,31.44,134.56,91.68L219.309,401.307z"/>
	</g>
</g>
<g>
</g>
<g>
</g>
<g>
</g>
<g>
</g>
<g>
</g>
<g>
</g>
<g>
</g>
<g>
</g>
<g>
</g>
<g>
</g>
<g>
</g>
<g>
</g>
<g>
</g>
<g>
</g>
<g>
</g>
</svg>
