<?xml version="1.0" encoding="iso-8859-1"?>
<!-- Generator: Adobe Illustrator 19.0.0, SVG Export Plug-In . SVG Version: 6.00 Build 0)  -->
<svg version="1.1" id="Capa_1" xmlns="http://www.w3.org/2000/svg" xmlns:xlink="http://www.w3.org/1999/xlink" x="0px" y="0px"
	 viewBox="0 0 428 428" style="enable-background:new 0 0 428 428;" xml:space="preserve">
<g>
	<g>
		<path d="M232.8,91.6l-0.4-0.08c-67.665-10.224-130.807,36.337-141.04,104c-4.812,31.437,2.728,63.517,21.04,89.52l-9.84,33.28
			c-1.25,4.238,1.173,8.686,5.41,9.936c1.865,0.55,3.866,0.402,5.63-0.416l28.48-12.72c16.006,11.488,34.516,19.001,54,21.92
			c6.118,0.906,12.295,1.361,18.48,1.36c61.156-0.539,112.912-45.317,122.24-105.76C346.931,164.998,300.414,101.914,232.8,91.6z
			 M320.96,230.08c-8.848,59.032-63.875,99.714-122.906,90.866c-18.403-2.758-35.781-10.221-50.454-21.666
			c-2.299-1.738-5.355-2.104-8-0.96l-16,8l5.92-20c0.705-2.417,0.231-5.026-1.28-7.04c-17.771-23.077-25.395-52.389-21.12-81.2
			c8.822-58.946,63.758-99.58,122.704-90.759c0.085,0.013,0.171,0.026,0.256,0.039C289.033,116.204,329.695,171.11,320.96,230.08z"
			/>
	</g>
</g>
<g>
	<g>
		<path d="M420.16,158.56h-44.32c-2.262-6.665-4.934-13.184-8-19.52l31.36-31.36c3.102-3.12,3.102-8.16,0-11.28l-67.36-67.28
			c-3.12-3.102-8.16-3.102-11.28,0L289.2,60.48c-6.336-3.066-12.855-5.738-19.52-8V8c0-4.418-3.582-8-8-8h-95.12
			c-4.418,0-8,3.582-8,8v44.32c-6.665,2.262-13.184,4.934-19.52,8l-31.36-31.2c-3.12-3.102-8.16-3.102-11.28,0l-67.28,67.2
			c-3.102,3.12-3.102,8.16,0,11.28l31.36,31.36c-3.066,6.336-5.738,12.855-8,19.52H8c-4.418,0-8,3.582-8,8v95.12
			c0,4.418,3.582,8,8,8h44.32c2.262,6.665,4.934,13.184,8,19.52l-31.2,31.36c-3.102,3.12-3.102,8.16,0,11.28l67.28,67.28
			c3.12,3.102,8.16,3.102,11.28,0l31.36-31.36c6.336,3.066,12.855,5.738,19.52,8V420c0,4.418,3.582,8,8,8h95.04c4.418,0,8-3.582,8-8
			v-44.16c6.665-2.262,13.184-4.934,19.52-8l31.36,31.36c3.12,3.102,8.16,3.102,11.28,0l67.28-67.28c3.102-3.12,3.102-8.16,0-11.28
			l-31.36-31.36c3.066-6.336,5.738-12.855,8-19.52H420c4.418,0,8-3.582,8-8v-95.2C428.001,162.203,424.516,158.647,420.16,158.56z
			 M412.16,253.68H370c-3.651-0.156-6.944,2.182-8,5.68c-2.907,9.576-6.738,18.846-11.44,27.68c-1.677,3.102-1.125,6.937,1.36,9.44
			l30.16,29.6l-56,56l-29.84-29.76c-2.503-2.485-6.338-3.037-9.44-1.36c-8.834,4.702-18.104,8.533-27.68,11.44
			c-3.498,1.056-5.836,4.349-5.68,8v42.08h-78.88V370c0.156-3.651-2.182-6.944-5.68-8c-9.576-2.907-18.846-6.738-27.68-11.44
			c-3.102-1.677-6.937-1.125-9.44,1.36l-29.68,30.16l-56-56l29.76-29.84c2.484-2.503,3.037-6.338,1.36-9.44
			c-4.702-8.834-8.533-18.104-11.44-27.68c-1.056-3.498-4.349-5.836-8-5.68H16v-78.88h42.08c3.651,0.156,6.944-2.182,8-5.68
			c2.907-9.576,6.738-18.846,11.44-27.68c1.677-3.102,1.125-6.937-1.36-9.44l-30.08-29.68l56-56l29.84,29.76
			c2.503,2.484,6.338,3.037,9.44,1.36c8.834-4.702,18.104-8.533,27.68-11.44c3.498-1.056,5.836-4.349,5.68-8V16h79.12v42.08
			c-0.156,3.651,2.182,6.944,5.68,8c9.576,2.907,18.846,6.738,27.68,11.44c3.102,1.677,6.937,1.125,9.44-1.36l29.44-30.08l56,56
			l-29.76,29.84c-2.484,2.503-3.037,6.338-1.36,9.44c4.702,8.834,8.533,18.104,11.44,27.68c1.056,3.498,4.349,5.836,8,5.68h42.08
			L412.16,253.68z"/>
	</g>
</g>
<g>
</g>
<g>
</g>
<g>
</g>
<g>
</g>
<g>
</g>
<g>
</g>
<g>
</g>
<g>
</g>
<g>
</g>
<g>
</g>
<g>
</g>
<g>
</g>
<g>
</g>
<g>
</g>
<g>
</g>
</svg>
