<?xml version="1.0" encoding="iso-8859-1"?>
<!-- Generator: Adobe Illustrator 19.0.0, SVG Export Plug-In . SVG Version: 6.00 Build 0)  -->
<svg version="1.1" id="Capa_1" xmlns="http://www.w3.org/2000/svg" xmlns:xlink="http://www.w3.org/1999/xlink" x="0px" y="0px"
	 viewBox="0 0 429.723 429.723" style="enable-background:new 0 0 429.723 429.723;" xml:space="preserve">
<g>
	<g>
		<path d="M264.878,188.443c-2.927-1.946-6.413-2.873-9.92-2.64h-43.36c1.228-1.909,2.591-3.727,4.08-5.44
			c5.28-5.829,11.062-11.183,17.28-16c8.373-6.827,14.347-11.84,17.92-15.04c4.118-3.896,7.648-8.369,10.48-13.28
			c3.432-5.693,5.206-12.233,5.12-18.88c-0.025-8.743-3.371-17.15-9.36-23.52c-2.982-3.091-6.543-5.565-10.48-7.28
			c-6.92-2.848-14.36-4.21-21.84-4c-6.302-0.134-12.572,0.924-18.48,3.12c-4.841,1.761-9.277,4.482-13.04,8
			c-3.41,3.205-6.132,7.07-8,11.36c-1.633,3.793-2.503,7.871-2.56,12c-0.159,2.773,0.823,5.491,2.72,7.52
			c1.842,1.834,4.363,2.819,6.96,2.72c2.743,0.167,5.406-0.958,7.2-3.04c1.948-2.608,3.437-5.53,4.4-8.64
			c0.725-2.372,1.663-4.675,2.8-6.88c3.58-6.07,10.154-9.739,17.2-9.6c3.344-0.041,6.644,0.756,9.6,2.32
			c2.879,1.506,5.287,3.775,6.96,6.56c1.729,2.9,2.616,6.224,2.56,9.6c-0.057,3.495-0.876,6.935-2.4,10.08
			c-1.609,3.732-3.796,7.188-6.48,10.24c-3.52,3.644-7.407,6.915-11.6,9.76c-4.411,3.359-8.606,6.993-12.56,10.88
			c-5.973,5.333-12.667,11.92-20.08,19.76c-2.084,2.374-3.76,5.077-4.96,8c-1.279,2.488-2.041,5.209-2.24,8
			c0.023,3.037,1.296,5.931,3.52,8c2.654,2.419,6.175,3.66,9.76,3.44h61.52c2.947,0.165,5.834-0.875,8-2.88
			c1.802-1.862,2.781-4.37,2.72-6.96C268.427,192.881,267.143,190.163,264.878,188.443z"/>
	</g>
</g>
<g>
	<g>
		<path d="M369.838,162.043c-3.281-1.296-6.795-1.895-10.32-1.76h-3.6v-64.32c0-9.707-4.24-14.56-12.72-14.56
			c-2.501-0.045-4.918,0.904-6.72,2.64c-2.603,2.626-4.984,5.462-7.12,8.48l-44.24,59.2l-3.12,4.08
			c-0.853,1.12-1.653,2.267-2.4,3.44c-0.716,1.076-1.307,2.23-1.76,3.44c-0.37,1.026-0.56,2.109-0.56,3.2
			c-0.164,3.683,1.299,7.251,4,9.76c3.335,2.63,7.521,3.94,11.76,3.68h41.6v15.52c-0.261,3.421,0.767,6.817,2.88,9.52
			c1.93,2.146,4.716,3.32,7.6,3.2c3.005,0.252,5.959-0.9,8-3.12c2.09-2.743,3.088-6.164,2.8-9.6v-15.52h5.12
			c3.326,0.219,6.641-0.561,9.52-2.24c2.205-1.641,3.414-4.299,3.2-7.04C374.341,166.806,372.753,163.566,369.838,162.043z
			 M334.638,160.603h-35.6l35.6-48.56V160.603z"/>
	</g>
</g>
<g>
	<g>
		<path d="M376.638,413.723l-0.24-0.72c-29.52,1.28-40.72-17.12-53.76-38.4c-11.52-18.8-24.48-40-51.84-40
			c1.575-3.275,2.705-6.746,3.36-10.32c3.36-20.16-5.76-51.28-68.16-84.48c-2.329-1.223-5.111-1.223-7.44,0l-20.96,10.8
			c-5.04,0-27.84-2-52.56-50.24c-20.8-51.28-8.88-70.16-6.32-73.44l21.52-9.44c2.415-1.062,4.151-3.247,4.64-5.84
			c13.44-69.44-5.04-96-22.8-106.16c-7.058-3.683-14.92-5.552-22.88-5.44c-18.191-0.82-34.86,10.11-41.36,27.12
			c-12.88,32-27.68,101.04,17.12,196.64c46.08,94.88,108.8,126.4,142.08,136.8c4.296,1.362,8.773,2.063,13.28,2.08
			c10.351-0.107,20.296-4.039,27.92-11.04c0.453,0.039,0.907,0.039,1.36,0c25.6-5.2,35.04,8,49.6,32
			c12.64,20.56,28.24,46.08,64.64,46.08h3.44c4.418-0.177,7.857-3.902,7.68-8.32C384.781,416.985,381.056,413.546,376.638,413.723z
			 M258.318,321.243c-2.965,13.6-14.382,23.724-28.24,25.04c-2.879-0.025-5.738-0.483-8.48-1.36c-30.96-9.6-88.96-39.04-132.4-128.4
			s-28.64-154.16-16.72-183.84c4.228-10.797,14.902-17.666,26.48-17.04c5.212-0.122,10.375,1.032,15.04,3.36
			c18.16,10.32,24,40.4,16,85.04l-19.04,8c-0.661,0.289-1.28,0.665-1.84,1.12c-2.8,2.32-26.4,24,1.52,92.96
			c27.52,53.84,56,59.6,66.56,59.6c1.613,0.016,3.222-0.145,4.8-0.48c0.641-0.163,1.259-0.405,1.84-0.72l18.48-9.52
			C241.838,277.403,261.758,300.683,258.318,321.243z"/>
	</g>
</g>
<g>
</g>
<g>
</g>
<g>
</g>
<g>
</g>
<g>
</g>
<g>
</g>
<g>
</g>
<g>
</g>
<g>
</g>
<g>
</g>
<g>
</g>
<g>
</g>
<g>
</g>
<g>
</g>
<g>
</g>
</svg>
